<?xml version="1.0" encoding="UTF-8"?>
<svg id="Layer_2" data-name="Layer 2" xmlns="http://www.w3.org/2000/svg" viewBox="0 0 469.24 538.58">
  <defs>
    <style>
      .cls-1 {
        fill: #fff;
      }

      .cls-2 {
        fill: #231f20;
        stroke: #231f20;
        stroke-miterlimit: 10;
      }
    </style>
  </defs>
  <g id="Layer_1-2" data-name="Layer 1">
    <g>
      <path class="cls-2" d="M463.74,131.23L239.62,1.84c-3.09-1.79-6.9-1.79-10,0L5.5,131.24c-3.09,1.78-5,5.08-5,8.66v258.78c0,3.58,1.91,6.88,5,8.67l224.12,129.39c3.1,1.79,6.91,1.79,10,0l224.12-129.4c3.09-1.78,5-5.08,5-8.66V139.9c0-3.58-1.91-6.88-5-8.67Z"/>
      <path class="cls-1" d="M411,371.13l-40.22-23.22c-3.07-1.77-4.97-5.05-4.98-8.6l-.34-134.49c0-3.56-1.92-6.84-5-8.61l-120.84-69.36c-3.09-1.78-5-5.07-5-8.64v-52.69c0-7.65,8.28-12.45,14.91-8.64l170.89,98.08c3.09,1.77,4.99,5.05,5,8.61l.51,198.9c.02,7.68-8.29,12.49-14.93,8.65Z"/>
      <path class="cls-1" d="M315.32,426.36l-40.21-23.21c-3.07-1.77-4.97-5.05-4.98-8.6l-.08-28.94-.19-75.97-.08-32.82c0-3.56-1.92-6.84-5-8.61l-30.16-17.31-59.96-34.42-30.72-17.63c-3.09-1.78-5-5.07-5-8.64v-49.45c0-7.65,8.28-12.45,14.91-8.64l20.81,11.94,59.96,34.41,90.12,51.73c3.08,1.77,4.99,5.05,5,8.61l.28,105.55.19,75.97.05,17.37c.02,7.68-8.29,12.49-14.94,8.65Z"/>
      <path class="cls-1" d="M220.21,482.58l-171.4-98.96c-3.08-1.78-4.98-5.07-4.98-8.62v-198.02c0-7.65,8.27-12.44,14.91-8.64l20.24,11.61,59.96,34.42,35.72,20.5,54.97,31.55c3.09,1.77,4.99,5.05,5,8.61l.18,70.22.08,34.67.19,72.73.06,21.27c.02,7.68-8.29,12.49-14.94,8.65Z"/>
    </g>
  </g>
</svg>