<?xml version="1.0" encoding="UTF-8"?>
<svg id="Layer_2" data-name="Layer 2" xmlns="http://www.w3.org/2000/svg" viewBox="0 0 469.24 538.58">
  <defs>
    <style>
      .cls-1 {
        fill: #fff;
      }

      .cls-2 {
        fill: #231f20;
        stroke: #231f20;
        stroke-miterlimit: 10;
      }
    </style>
  </defs>
  <g id="Layer_1-2" data-name="Layer 1">
    <path class="cls-2" d="M239.62,536.74l224.11-129.4c3.1-1.78,5-5.08,5-8.66V139.89c0-3.57-1.9-6.87-5-8.66L239.62,1.84c-3.1-1.79-6.91-1.79-10.01,0L5.5,131.24c-3.1,1.79-5.01,5.09-5,8.66v258.79c0,3.57,1.9,6.87,5,8.66l224.11,129.39c3.1,1.79,6.91,1.79,10.01,0Z"/>
    <path class="cls-1" d="M58.24,363.12l40.21-23.22c3.07-1.77,6.86-1.78,9.94-.01l116.64,66.95c3.09,1.77,6.88,1.76,9.96-.03l120.49-69.97c3.08-1.79,6.89-1.8,9.98-.01l45.63,26.34c6.63,3.83,6.64,13.39.02,17.23l-170.38,98.96c-3.08,1.79-6.87,1.8-9.96.03l-172.5-99c-6.66-3.82-6.67-13.42-.02-17.26Z"/>
    <path class="cls-1" d="M58.24,260.64l40.21-23.21c3.07-1.77,6.86-1.78,9.93-.01l25.1,14.4,65.89,37.82,28.47,16.34c3.09,1.77,6.88,1.76,9.96-.03l30.07-17.47,59.79-34.72,30.63-17.79c3.08-1.79,6.89-1.8,9.98-.01l42.82,24.72c6.63,3.83,6.64,13.39.02,17.23l-20.75,12.05-59.78,34.72-89.86,52.19c-3.08,1.79-6.87,1.8-9.96.03l-91.55-52.54-65.89-37.82-15.07-8.65c-6.66-3.82-6.67-13.42-.02-17.26Z"/>
    <path class="cls-1" d="M57.11,158.17L228.51,59.21c3.08-1.78,6.88-1.78,9.96,0l171.49,99.01c6.63,3.83,6.64,13.39.02,17.23l-20.18,11.72-59.79,34.72-35.61,20.68-54.81,31.83c-3.08,1.79-6.87,1.8-9.96.03l-60.91-34.95-30.07-17.27-63.08-36.2-18.45-10.59c-6.66-3.82-6.67-13.42-.02-17.26Z"/>
  </g>
</svg>