<?xml version="1.0" encoding="UTF-8"?>
<svg id="Layer_2" data-name="Layer 2" xmlns="http://www.w3.org/2000/svg" viewBox="0 0 875.38 244.09">
  <defs>
    <style>
      .cls-1, .cls-2 {
        fill: #231f20;
      }

      .cls-3 {
        fill: #fff;
      }

      .cls-2 {
        stroke: #231f20;
        stroke-miterlimit: 10;
        stroke-width: .45px;
      }
    </style>
  </defs>
  <g id="Layer_1-2" data-name="Layer 1">
    <g>
      <path class="cls-2" d="M108.6,243.26l101.57-58.65c1.4-.81,2.27-2.3,2.27-3.92V63.4c0-1.62-.86-3.11-2.27-3.92L108.6.83c-1.41-.81-3.13-.81-4.54,0L2.49,59.48c-1.41.81-2.27,2.31-2.27,3.92v117.29c0,1.62.86,3.11,2.27,3.92l101.57,58.64c1.41.81,3.13.81,4.54,0Z"/>
      <path class="cls-3" d="M26.39,164.57l18.23-10.52c1.39-.8,3.11-.81,4.5,0l52.86,30.34c1.4.8,3.12.8,4.51-.01l54.61-31.71c1.4-.81,3.12-.81,4.52,0l20.68,11.94c3,1.73,3.01,6.07.01,7.81l-77.22,44.85c-1.39.81-3.11.81-4.51.01l-78.18-44.87c-3.02-1.73-3.02-6.08-.01-7.82Z"/>
      <path class="cls-3" d="M26.4,118.13l18.22-10.52c1.39-.8,3.11-.81,4.5,0l11.38,6.53,29.86,17.14,12.9,7.4c1.4.8,3.12.8,4.51-.01l13.63-7.92,27.1-15.73,13.88-8.06c1.4-.81,3.12-.81,4.52,0l19.41,11.21c3,1.73,3.01,6.07.01,7.81l-9.4,5.46-27.09,15.74-40.73,23.65c-1.39.81-3.11.81-4.51.01l-41.49-23.81-29.86-17.14-6.83-3.92c-3.02-1.73-3.02-6.08-.01-7.82Z"/>
      <path class="cls-3" d="M25.88,71.68L103.56,26.83c1.4-.81,3.12-.81,4.51,0l77.72,44.87c3,1.73,3.01,6.07.01,7.81l-9.14,5.31-27.1,15.73-16.14,9.37-24.84,14.43c-1.39.81-3.11.81-4.51.01l-27.6-15.84-13.63-7.83-28.59-16.41-8.36-4.8c-3.02-1.73-3.02-6.08-.01-7.82Z"/>
      <g>
        <path class="cls-1" d="M253.29,40.83h71.25c18.06,0,32.13,4.74,42.22,14.23,10.09,9.49,15.14,22.35,15.14,38.58s-5.05,28.87-15.14,38.35c-10.09,9.49-24.17,14.23-42.22,14.23h-40.52v56.68h-30.73V40.83ZM284.02,119.82h39.15c8.95,0,15.82-2.24,20.6-6.71,4.78-4.47,7.17-10.96,7.17-19.46s-2.39-15.02-7.17-19.58-11.65-6.83-20.6-6.83h-39.15v52.58Z"/>
        <path class="cls-1" d="M469.53,69.97l17.75-29.14h33.92l-60.78,98.11v63.96h-30.73v-63.96l-61.23-98.11h34.83l17.98,29.36c14.57,24.28,22.68,37.94,24.36,40.97,4.1-7.28,12.06-21.02,23.9-41.2Z"/>
        <path class="cls-1" d="M500.94,40.83h134.75v27.54h-51.9v134.53h-30.96V68.38h-51.9v-27.54Z"/>
        <path class="cls-1" d="M664.6,206.54c-16.69,0-29.78-4.59-39.27-13.77-9.49-9.18-14.23-21.59-14.23-37.22v-10.47h29.36v10.47c0,7.74,2.12,13.77,6.37,18.1,4.25,4.33,10.09,6.49,17.53,6.49s13.5-2.12,17.75-6.37,6.37-10.32,6.37-18.21V40.83h30.5v114.72c0,15.33-4.82,27.66-14.45,36.99-9.64,9.33-22.95,14-39.95,14Z"/>
        <path class="cls-1" d="M875.38,202.9h-32.55l-12.75-35.74h-71.02l-12.52,35.74h-31.64l61.69-162.07h35.96l62.82,162.07ZM774.54,123.46l-6.15,17.53h52.35l-6.37-17.53c-5.31-13.5-11.99-32.02-20.03-55.54-6.37,18.82-12.97,37.33-19.8,55.54Z"/>
      </g>
    </g>
  </g>
</svg>