<?xml version="1.0" encoding="UTF-8"?>
<svg id="Layer_2" data-name="Layer 2" xmlns="http://www.w3.org/2000/svg" viewBox="0 0 1857.57 347.92">
  <defs>
    <style>
      .cls-1, .cls-2 {
        fill: #231f20;
      }

      .cls-2 {
        stroke: #231f20;
        stroke-miterlimit: 10;
      }
    </style>
  </defs>
  <g id="Layer_1-2" data-name="Layer 1">
    <polygon class="cls-2" points="700.57 174.21 600.57 347.42 500.57 347.42 450.57 260.81 400.56 347.42 300.56 347.42 250.57 260.81 200.57 347.42 100.56 347.42 50.57 260.81 .57 174.21 .58 174.19 100.55 174.19 100.57 174.21 100.58 174.19 150.57 87.61 200.56 1.01 250.56 87.62 200.58 174.19 200.55 174.19 200.57 174.21 200.58 174.19 300.54 174.19 300.56 174.22 300.58 174.19 350.57 87.61 350.57 87.6 400.57 1 450.57 87.61 400.58 174.19 400.55 174.19 400.57 174.21 400.58 174.19 500.55 174.19 500.57 174.21 500.58 174.19 600.57 1 700.55 174.19 700.57 174.21"/>
    <g>
      <path class="cls-1" d="M787.75,153.67V1h31.95v152.67h-31.95ZM803.83,105.63v-25.07h37.45c9.17,0,16.29-2.34,21.37-7.04,5.08-4.69,7.62-11.34,7.62-19.94v-.21c0-8.75-2.54-15.43-7.62-20.05-5.08-4.62-12.2-6.93-21.37-6.93h-37.45V1h45.28c10.72,0,20.1,2.17,28.14,6.51s14.3,10.42,18.78,18.25c4.48,7.83,6.72,17,6.72,27.51v.21c0,10.44-2.24,19.57-6.72,27.4-4.48,7.83-10.74,13.91-18.78,18.25s-17.42,6.51-28.14,6.51h-45.28Z"/>
      <path class="cls-1" d="M941.12,153.67v-57.03L888.01,1h34.49l34.28,65.17h.74L991.7,1h34.6l-53.22,95.64v57.03h-31.95Z"/>
      <path class="cls-1" d="M1054.85,153.67V27.34h-44.22V1h120.4v26.34h-44.22v126.32h-31.95Z"/>
      <path class="cls-1" d="M1151.52,156.31c-7.9,0-14.97-1.11-21.21-3.33-6.24-2.22-11.58-5.41-16.03-9.57-4.44-4.16-7.88-9.15-10.32-14.97s-3.76-12.33-3.97-19.52v-.95h31l.11.63c.21,3.95,1.11,7.44,2.7,10.47,1.59,3.03,3.84,5.4,6.77,7.09,2.93,1.69,6.47,2.54,10.63,2.54,6.7,0,11.81-2.01,15.34-6.03,3.53-4.02,5.29-9.87,5.29-17.56V1h31.95v104.42c0,10.65-2.06,19.78-6.19,27.4-4.13,7.62-10.07,13.44-17.83,17.46-7.76,4.02-17.18,6.03-28.25,6.03Z"/>
      <path class="cls-1" d="M1197.83,153.67L1251.04,1h28.25v29.62h-9.73l-38.19,123.04h-33.54ZM1226.5,116.64l7.83-23.91h71.2l7.83,23.91h-86.86ZM1308.28,153.67l-38.09-123.04V1h18.51l53.22,152.67h-33.64Z"/>
    </g>
    <g>
      <path class="cls-1" d="M787.67,347.42v-152.67h58.29c15.3,0,28.37,2.93,39.2,8.78,10.83,5.86,19.13,14.41,24.92,25.66,5.78,11.25,8.68,24.95,8.68,41.1v.21c0,16.15-2.88,29.98-8.62,41.47-5.75,11.5-14.05,20.28-24.92,26.34-10.86,6.07-23.95,9.1-39.25,9.1h-58.29ZM819.62,320.97h22.53c9.52,0,17.54-1.9,24.07-5.71,6.52-3.81,11.48-9.45,14.86-16.93,3.39-7.47,5.08-16.72,5.08-27.72v-.21c0-10.58-1.73-19.54-5.18-26.87-3.46-7.34-8.46-12.89-15.02-16.66-6.56-3.77-14.49-5.66-23.8-5.66h-22.53v99.77Z"/>
      <path class="cls-1" d="M905.25,347.42l53.22-152.67h28.25v29.62h-9.73l-38.19,123.04h-33.54ZM933.92,310.39l7.83-23.91h71.2l7.83,23.91h-86.86ZM1015.7,347.42l-38.09-123.04v-29.62h18.51l53.22,152.67h-33.64Z"/>
      <path class="cls-1" d="M1062.81,347.42v-126.32h-44.22v-26.34h120.4v26.34h-44.22v126.32h-31.95Z"/>
      <path class="cls-1" d="M1108.24,347.42l53.22-152.67h28.25v29.62h-9.73l-38.19,123.04h-33.54ZM1136.91,310.39l7.83-23.91h71.2l7.83,23.91h-86.86ZM1218.69,347.42l-38.09-123.04v-29.62h18.51l53.22,152.67h-33.64Z"/>
      <path class="cls-1" d="M1292.78,347.42v-152.67h31.95v126.32h66.76v26.34h-98.71Z"/>
      <path class="cls-1" d="M1382.64,347.42l53.22-152.67h28.25v29.62h-9.73l-38.19,123.04h-33.54ZM1411.31,310.39l7.83-23.91h71.2l7.83,23.91h-86.86ZM1493.09,347.42l-38.09-123.04v-29.62h18.51l53.22,152.67h-33.64Z"/>
      <path class="cls-1" d="M1546.56,347.42v-57.03l-53.11-95.64h34.49l34.28,65.17h.74l34.17-65.17h34.6l-53.22,95.64v57.03h-31.95Z"/>
      <path class="cls-1" d="M1629.22,347.42v-152.67h101.14v26.34h-69.19v36.61h65.28v25.07h-65.28v38.3h69.19v26.34h-101.14Z"/>
      <path class="cls-1" d="M1735.37,347.42v-152.67h63.06c11.43,0,21.21,1.96,29.36,5.87,8.15,3.91,14.39,9.51,18.73,16.77,4.34,7.26,6.51,16.01,6.51,26.24v.21c0,10.09-2.49,19.03-7.46,26.82-4.97,7.79-11.69,13.35-20.15,16.66l32.16,60.09h-36.29l-28.35-55.23h-25.6v55.23h-31.95ZM1767.32,267.86h27.61c7.9,0,14.11-2.12,18.62-6.35,4.51-4.23,6.77-10.09,6.77-17.56v-.21c0-7.34-2.35-13.15-7.04-17.46-4.69-4.3-10.95-6.45-18.78-6.45h-27.19v48.03Z"/>
    </g>
  </g>
</svg>